<svg xmlns="http://www.w3.org/2000/svg" xmlns:xlink="http://www.w3.org/1999/xlink" width="1000" zoomAndPan="magnify" viewBox="0 0 750 112.499997" height="150" preserveAspectRatio="xMidYMid meet" version="1.0"><defs><g/><clipPath id="042fd821e2"><path d="M 119 22 L 740 22 L 740 112.003906 L 119 112.003906 Z M 119 22 " clip-rule="nonzero"/></clipPath><clipPath id="8251f90e95"><path d="M 8 0.699219 L 60 0.699219 L 60 86 L 8 86 Z M 8 0.699219 " clip-rule="nonzero"/></clipPath><clipPath id="7694e18c5f"><path d="M 68 0.699219 L 126 0.699219 L 126 86 L 68 86 Z M 68 0.699219 " clip-rule="nonzero"/></clipPath><clipPath id="dbd1b6cba2"><path d="M 207 0.699219 L 271 0.699219 L 271 86 L 207 86 Z M 207 0.699219 " clip-rule="nonzero"/></clipPath><clipPath id="c32daca49b"><path d="M 281 0.699219 L 346 0.699219 L 346 86 L 281 86 Z M 281 0.699219 " clip-rule="nonzero"/></clipPath><clipPath id="4ec269de6f"><path d="M 409 0.699219 L 474 0.699219 L 474 86 L 409 86 Z M 409 0.699219 " clip-rule="nonzero"/></clipPath><clipPath id="16836de0f6"><rect x="0" width="621" y="0" height="91"/></clipPath><clipPath id="774c6d0d57"><path d="M 1.660156 0 L 114.40625 0 L 114.40625 112 L 1.660156 112 Z M 1.660156 0 " clip-rule="nonzero"/></clipPath></defs><g clip-path="url(#042fd821e2)"><g transform="matrix(1, 0, 0, 1, 119, 22)"><g clip-path="url(#16836de0f6)"><g clip-path="url(#8251f90e95)"><g fill="#0f172a" fill-opacity="1"><g transform="translate(3.3784, 83.742192)"><g><path d="M 6.015625 -14.171875 C 9.328125 -12.273438 12.8125 -10.796875 16.46875 -9.734375 C 20.132812 -8.671875 23.851562 -8.140625 27.625 -8.140625 C 29.519531 -8.140625 31.390625 -8.359375 33.234375 -8.796875 C 35.085938 -9.234375 36.738281 -9.921875 38.1875 -10.859375 C 39.644531 -11.804688 40.828125 -13.046875 41.734375 -14.578125 C 42.640625 -16.117188 43.09375 -17.988281 43.09375 -20.1875 C 43.09375 -22.3125 42.695312 -24.140625 41.90625 -25.671875 C 41.125 -27.210938 40.101562 -28.59375 38.84375 -29.8125 C 37.582031 -31.03125 36.164062 -32.113281 34.59375 -33.0625 C 33.019531 -34.007812 31.445312 -34.953125 29.875 -35.890625 L 22.4375 -40.265625 C 20.15625 -41.523438 17.953125 -42.800781 15.828125 -44.09375 C 13.703125 -45.394531 11.8125 -46.851562 10.15625 -48.46875 C 8.5 -50.082031 7.175781 -51.953125 6.1875 -54.078125 C 5.207031 -56.203125 4.71875 -58.757812 4.71875 -61.75 C 4.71875 -65.6875 5.484375 -68.992188 7.015625 -71.671875 C 8.554688 -74.347656 10.601562 -76.507812 13.15625 -78.15625 C 15.71875 -79.8125 18.613281 -80.992188 21.84375 -81.703125 C 25.070312 -82.410156 28.378906 -82.765625 31.765625 -82.765625 C 37.984375 -82.765625 44.160156 -81.976562 50.296875 -80.40625 L 50.296875 -69.3125 C 47.148438 -70.332031 44 -71.253906 40.84375 -72.078125 C 37.695312 -72.910156 34.472656 -73.328125 31.171875 -73.328125 C 29.515625 -73.328125 27.878906 -73.128906 26.265625 -72.734375 C 24.660156 -72.335938 23.226562 -71.726562 21.96875 -70.90625 C 20.707031 -70.082031 19.679688 -68.976562 18.890625 -67.59375 C 18.109375 -66.21875 17.71875 -64.585938 17.71875 -62.703125 C 17.71875 -61.046875 18.164062 -59.546875 19.0625 -58.203125 C 19.96875 -56.867188 21.109375 -55.628906 22.484375 -54.484375 C 23.867188 -53.347656 25.328125 -52.328125 26.859375 -51.421875 C 28.398438 -50.515625 29.757812 -49.707031 30.9375 -49 L 38.96875 -44.28125 C 41.332031 -42.9375 43.554688 -41.578125 45.640625 -40.203125 C 47.722656 -38.828125 49.53125 -37.289062 51.0625 -35.59375 C 52.601562 -33.90625 53.828125 -31.957031 54.734375 -29.75 C 55.640625 -27.550781 56.09375 -24.914062 56.09375 -21.84375 C 56.09375 -17.59375 55.265625 -13.988281 53.609375 -11.03125 C 51.953125 -8.082031 49.742188 -5.703125 46.984375 -3.890625 C 44.234375 -2.085938 41.085938 -0.773438 37.546875 0.046875 C 34.003906 0.878906 30.382812 1.296875 26.6875 1.296875 C 23.300781 1.296875 19.835938 1.039062 16.296875 0.53125 C 12.753906 0.0195312 9.328125 -0.785156 6.015625 -1.890625 Z M 6.015625 -14.171875 "/></g></g></g></g><g clip-path="url(#7694e18c5f)"><g fill="#0f172a" fill-opacity="1"><g transform="translate(62.883684, 83.742192)"><g><path d="M 59.28125 -3.546875 C 55.96875 -2.046875 52.476562 -0.863281 48.8125 0 C 45.15625 0.863281 41.519531 1.296875 37.90625 1.296875 C 31.601562 1.296875 26.363281 0.078125 22.1875 -2.359375 C 18.019531 -4.796875 14.695312 -8.019531 12.21875 -12.03125 C 9.738281 -16.050781 7.988281 -20.640625 6.96875 -25.796875 C 5.945312 -30.953125 5.4375 -36.25 5.4375 -41.6875 C 5.4375 -46.800781 5.90625 -51.816406 6.84375 -56.734375 C 7.789062 -61.648438 9.425781 -66.035156 11.75 -69.890625 C 14.070312 -73.753906 17.21875 -76.863281 21.1875 -79.21875 C 25.164062 -81.582031 30.1875 -82.765625 36.25 -82.765625 C 39.945312 -82.765625 43.390625 -82.273438 46.578125 -81.296875 C 49.765625 -80.316406 52.539062 -78.820312 54.90625 -76.8125 C 57.269531 -74.800781 59.117188 -72.316406 60.453125 -69.359375 C 61.796875 -66.410156 62.46875 -63.007812 62.46875 -59.15625 L 48.765625 -59.15625 C 48.921875 -63.40625 47.9375 -66.828125 45.8125 -69.421875 C 43.6875 -72.023438 40.378906 -73.328125 35.890625 -73.328125 C 32.117188 -73.328125 29.070312 -72.320312 26.75 -70.3125 C 24.425781 -68.300781 22.648438 -65.800781 21.421875 -62.8125 C 20.203125 -59.820312 19.394531 -56.59375 19 -53.125 C 18.613281 -49.664062 18.421875 -46.484375 18.421875 -43.578125 C 18.421875 -39.796875 18.632812 -35.816406 19.0625 -31.640625 C 19.5 -27.472656 20.460938 -23.65625 21.953125 -20.1875 C 23.453125 -16.726562 25.65625 -13.851562 28.5625 -11.5625 C 31.476562 -9.28125 35.378906 -8.140625 40.265625 -8.140625 C 43.890625 -8.140625 47.210938 -8.710938 50.234375 -9.859375 C 53.265625 -11.003906 56.28125 -12.5625 59.28125 -14.53125 Z M 59.28125 -3.546875 "/></g></g></g></g><g fill="#0f172a" fill-opacity="1"><g transform="translate(126.757377, 83.742192)"><g><path d="M 53.25 0 L 53.25 -37.671875 L 21.25 -37.671875 L 21.25 0 L 9.453125 0 L 9.453125 -81.46875 L 21.25 -81.46875 L 21.25 -47.109375 L 53.25 -47.109375 L 53.25 -81.46875 L 65.0625 -81.46875 L 65.0625 0 Z M 53.25 0 "/></g></g></g><g clip-path="url(#dbd1b6cba2)"><g fill="#0f172a" fill-opacity="1"><g transform="translate(201.611177, 83.742192)"><g><path d="M 37.1875 -8.140625 C 41.363281 -8.140625 44.691406 -9.242188 47.171875 -11.453125 C 49.648438 -13.660156 51.554688 -16.414062 52.890625 -19.71875 C 54.234375 -23.019531 55.101562 -26.5625 55.5 -30.34375 C 55.894531 -34.125 56.09375 -37.585938 56.09375 -40.734375 C 56.09375 -43.878906 55.894531 -47.34375 55.5 -51.125 C 55.101562 -54.90625 54.234375 -58.445312 52.890625 -61.75 C 51.554688 -65.0625 49.648438 -67.816406 47.171875 -70.015625 C 44.691406 -72.222656 41.363281 -73.328125 37.1875 -73.328125 C 33.019531 -73.328125 29.695312 -72.222656 27.21875 -70.015625 C 24.738281 -67.816406 22.847656 -65.0625 21.546875 -61.75 C 20.242188 -58.445312 19.394531 -54.90625 19 -51.125 C 18.613281 -47.34375 18.421875 -43.878906 18.421875 -40.734375 C 18.421875 -37.585938 18.613281 -34.125 19 -30.34375 C 19.394531 -26.5625 20.242188 -23.019531 21.546875 -19.71875 C 22.847656 -16.414062 24.738281 -13.660156 27.21875 -11.453125 C 29.695312 -9.242188 33.019531 -8.140625 37.1875 -8.140625 Z M 37.1875 1.296875 C 30.894531 1.296875 25.703125 0.117188 21.609375 -2.234375 C 17.515625 -4.597656 14.265625 -7.726562 11.859375 -11.625 C 9.460938 -15.519531 7.789062 -19.988281 6.84375 -25.03125 C 5.90625 -30.070312 5.4375 -35.304688 5.4375 -40.734375 C 5.4375 -46.171875 5.90625 -51.40625 6.84375 -56.4375 C 7.789062 -61.476562 9.441406 -65.945312 11.796875 -69.84375 C 14.160156 -73.738281 17.390625 -76.863281 21.484375 -79.21875 C 25.578125 -81.582031 30.8125 -82.765625 37.1875 -82.765625 C 43.488281 -82.765625 48.707031 -81.582031 52.84375 -79.21875 C 56.976562 -76.863281 60.242188 -73.738281 62.640625 -69.84375 C 65.035156 -65.945312 66.707031 -61.476562 67.65625 -56.4375 C 68.601562 -51.40625 69.078125 -46.171875 69.078125 -40.734375 C 69.078125 -35.304688 68.601562 -30.070312 67.65625 -25.03125 C 66.707031 -19.988281 65.035156 -15.519531 62.640625 -11.625 C 60.242188 -7.726562 56.976562 -4.597656 52.84375 -2.234375 C 48.707031 0.117188 43.488281 1.296875 37.1875 1.296875 Z M 37.1875 1.296875 "/></g></g></g></g><g clip-path="url(#c32daca49b)"><g fill="#0f172a" fill-opacity="1"><g transform="translate(276.464977, 83.742192)"><g><path d="M 37.1875 -8.140625 C 41.363281 -8.140625 44.691406 -9.242188 47.171875 -11.453125 C 49.648438 -13.660156 51.554688 -16.414062 52.890625 -19.71875 C 54.234375 -23.019531 55.101562 -26.5625 55.5 -30.34375 C 55.894531 -34.125 56.09375 -37.585938 56.09375 -40.734375 C 56.09375 -43.878906 55.894531 -47.34375 55.5 -51.125 C 55.101562 -54.90625 54.234375 -58.445312 52.890625 -61.75 C 51.554688 -65.0625 49.648438 -67.816406 47.171875 -70.015625 C 44.691406 -72.222656 41.363281 -73.328125 37.1875 -73.328125 C 33.019531 -73.328125 29.695312 -72.222656 27.21875 -70.015625 C 24.738281 -67.816406 22.847656 -65.0625 21.546875 -61.75 C 20.242188 -58.445312 19.394531 -54.90625 19 -51.125 C 18.613281 -47.34375 18.421875 -43.878906 18.421875 -40.734375 C 18.421875 -37.585938 18.613281 -34.125 19 -30.34375 C 19.394531 -26.5625 20.242188 -23.019531 21.546875 -19.71875 C 22.847656 -16.414062 24.738281 -13.660156 27.21875 -11.453125 C 29.695312 -9.242188 33.019531 -8.140625 37.1875 -8.140625 Z M 37.1875 1.296875 C 30.894531 1.296875 25.703125 0.117188 21.609375 -2.234375 C 17.515625 -4.597656 14.265625 -7.726562 11.859375 -11.625 C 9.460938 -15.519531 7.789062 -19.988281 6.84375 -25.03125 C 5.90625 -30.070312 5.4375 -35.304688 5.4375 -40.734375 C 5.4375 -46.171875 5.90625 -51.40625 6.84375 -56.4375 C 7.789062 -61.476562 9.441406 -65.945312 11.796875 -69.84375 C 14.160156 -73.738281 17.390625 -76.863281 21.484375 -79.21875 C 25.578125 -81.582031 30.8125 -82.765625 37.1875 -82.765625 C 43.488281 -82.765625 48.707031 -81.582031 52.84375 -79.21875 C 56.976562 -76.863281 60.242188 -73.738281 62.640625 -69.84375 C 65.035156 -65.945312 66.707031 -61.476562 67.65625 -56.4375 C 68.601562 -51.40625 69.078125 -46.171875 69.078125 -40.734375 C 69.078125 -35.304688 68.601562 -30.070312 67.65625 -25.03125 C 66.707031 -19.988281 65.035156 -15.519531 62.640625 -11.625 C 60.242188 -7.726562 56.976562 -4.597656 52.84375 -2.234375 C 48.707031 0.117188 43.488281 1.296875 37.1875 1.296875 Z M 37.1875 1.296875 "/></g></g></g></g><g fill="#0f172a" fill-opacity="1"><g transform="translate(351.318777, 83.742192)"><g><path d="M 9.453125 0 L 9.453125 -81.46875 L 21.25 -81.46875 L 21.25 -9.453125 L 52.546875 -9.453125 L 52.546875 0 Z M 9.453125 0 "/></g></g></g><g clip-path="url(#4ec269de6f)"><g fill="#0f172a" fill-opacity="1"><g transform="translate(404.212363, 83.742192)"><g><path d="M 37.1875 -8.140625 C 41.363281 -8.140625 44.691406 -9.242188 47.171875 -11.453125 C 49.648438 -13.660156 51.554688 -16.414062 52.890625 -19.71875 C 54.234375 -23.019531 55.101562 -26.5625 55.5 -30.34375 C 55.894531 -34.125 56.09375 -37.585938 56.09375 -40.734375 C 56.09375 -43.878906 55.894531 -47.34375 55.5 -51.125 C 55.101562 -54.90625 54.234375 -58.445312 52.890625 -61.75 C 51.554688 -65.0625 49.648438 -67.816406 47.171875 -70.015625 C 44.691406 -72.222656 41.363281 -73.328125 37.1875 -73.328125 C 33.019531 -73.328125 29.695312 -72.222656 27.21875 -70.015625 C 24.738281 -67.816406 22.847656 -65.0625 21.546875 -61.75 C 20.242188 -58.445312 19.394531 -54.90625 19 -51.125 C 18.613281 -47.34375 18.421875 -43.878906 18.421875 -40.734375 C 18.421875 -37.585938 18.613281 -34.125 19 -30.34375 C 19.394531 -26.5625 20.242188 -23.019531 21.546875 -19.71875 C 22.847656 -16.414062 24.738281 -13.660156 27.21875 -11.453125 C 29.695312 -9.242188 33.019531 -8.140625 37.1875 -8.140625 Z M 37.1875 1.296875 C 30.894531 1.296875 25.703125 0.117188 21.609375 -2.234375 C 17.515625 -4.597656 14.265625 -7.726562 11.859375 -11.625 C 9.460938 -15.519531 7.789062 -19.988281 6.84375 -25.03125 C 5.90625 -30.070312 5.4375 -35.304688 5.4375 -40.734375 C 5.4375 -46.171875 5.90625 -51.40625 6.84375 -56.4375 C 7.789062 -61.476562 9.441406 -65.945312 11.796875 -69.84375 C 14.160156 -73.738281 17.390625 -76.863281 21.484375 -79.21875 C 25.578125 -81.582031 30.8125 -82.765625 37.1875 -82.765625 C 43.488281 -82.765625 48.707031 -81.582031 52.84375 -79.21875 C 56.976562 -76.863281 60.242188 -73.738281 62.640625 -69.84375 C 65.035156 -65.945312 66.707031 -61.476562 67.65625 -56.4375 C 68.601562 -51.40625 69.078125 -46.171875 69.078125 -40.734375 C 69.078125 -35.304688 68.601562 -30.070312 67.65625 -25.03125 C 66.707031 -19.988281 65.035156 -15.519531 62.640625 -11.625 C 60.242188 -7.726562 56.976562 -4.597656 52.84375 -2.234375 C 48.707031 0.117188 43.488281 1.296875 37.1875 1.296875 Z M 37.1875 1.296875 "/></g></g></g></g><g fill="#0f172a" fill-opacity="1"><g transform="translate(479.066163, 83.742192)"><g><path d="M 27.984375 -44.515625 C 30.265625 -44.515625 32.425781 -44.769531 34.46875 -45.28125 C 36.519531 -45.789062 38.332031 -46.613281 39.90625 -47.75 C 41.476562 -48.894531 42.71875 -50.351562 43.625 -52.125 C 44.53125 -53.894531 44.984375 -56.082031 44.984375 -58.6875 C 44.984375 -63.40625 43.742188 -66.804688 41.265625 -68.890625 C 38.785156 -70.984375 35.265625 -72.03125 30.703125 -72.03125 L 21.140625 -72.03125 L 21.140625 -44.515625 Z M 48.890625 0 L 43.921875 -18.0625 C 43.210938 -20.582031 42.539062 -22.882812 41.90625 -24.96875 C 41.28125 -27.0625 40.4375 -28.851562 39.375 -30.34375 C 38.3125 -31.84375 36.894531 -33.003906 35.125 -33.828125 C 33.351562 -34.648438 30.929688 -35.0625 27.859375 -35.0625 L 21.140625 -35.0625 L 21.140625 0 L 9.328125 0 L 9.328125 -81.46875 L 32.9375 -81.46875 C 36.40625 -81.46875 39.59375 -81.054688 42.5 -80.234375 C 45.414062 -79.410156 47.9375 -78.128906 50.0625 -76.390625 C 52.1875 -74.660156 53.835938 -72.457031 55.015625 -69.78125 C 56.203125 -67.101562 56.796875 -63.878906 56.796875 -60.109375 C 56.796875 -54.597656 55.414062 -50.328125 52.65625 -47.296875 C 49.90625 -44.265625 45.929688 -42.117188 40.734375 -40.859375 L 40.734375 -40.625 C 43.335938 -40.070312 45.441406 -39.265625 47.046875 -38.203125 C 48.660156 -37.140625 49.957031 -35.835938 50.9375 -34.296875 C 51.925781 -32.765625 52.695312 -31.035156 53.25 -29.109375 C 53.800781 -27.179688 54.3125 -25.035156 54.78125 -22.671875 L 59.625 0 Z M 48.890625 0 "/></g></g></g><g fill="#0f172a" fill-opacity="1"><g transform="translate(542.939856, 83.742192)"><g><path d="M 36.25 -70.609375 L 36.015625 -70.609375 L 24.203125 -32.703125 L 47.46875 -32.703125 Z M 58.6875 0 L 50.65625 -23.265625 L 21.484375 -23.265625 L 13.578125 0 L 1.0625 0 L 28.8125 -81.46875 L 43.328125 -81.46875 L 71.203125 0 Z M 58.6875 0 "/></g></g></g></g></g></g><g clip-path="url(#774c6d0d57)"><path fill="#0f172a" d="M 3.054688 111.855469 L 112.664062 111.855469 C 113.433594 111.855469 114.066406 111.226562 114.066406 110.453125 L 114.066406 108.480469 C 114.066406 107.707031 113.433594 107.078125 112.664062 107.078125 L 3.054688 107.078125 C 2.28125 107.078125 1.652344 107.707031 1.652344 108.480469 L 1.652344 110.453125 C 1.652344 111.226562 2.28125 111.855469 3.054688 111.855469 Z M 111.421875 55.238281 L 79.84375 55.238281 L 79.84375 49.226562 L 109.25 49.226562 C 109.730469 49.226562 110.140625 49.445312 110.410156 49.84375 L 112.582031 53.050781 C 112.878906 53.492188 112.910156 54.023438 112.660156 54.496094 C 112.410156 54.964844 111.953125 55.238281 111.421875 55.238281 Z M 4.296875 55.238281 L 35.871094 55.238281 L 35.871094 49.226562 L 6.46875 49.226562 C 5.988281 49.226562 5.574219 49.445312 5.304688 49.84375 L 3.132812 53.050781 C 2.835938 53.492188 2.804688 54.023438 3.054688 54.496094 C 3.304688 54.964844 3.761719 55.238281 4.296875 55.238281 Z M 59.261719 9.964844 L 71.5 9.964844 C 72.074219 9.964844 72.5625 9.707031 72.789062 9.285156 C 73.015625 8.867188 72.910156 8.40625 72.515625 8.078125 L 70.464844 6.359375 C 69.949219 5.925781 69.949219 5.25 70.464844 4.816406 L 72.515625 3.101562 C 72.910156 2.769531 73.015625 2.308594 72.789062 1.890625 C 72.5625 1.46875 72.074219 1.210938 71.5 1.210938 L 59.261719 1.210938 L 59.222656 1.214844 C 59.082031 0.589844 58.523438 0.121094 57.859375 0.121094 C 57.085938 0.121094 56.457031 0.75 56.457031 1.523438 L 56.457031 14.269531 L 26.175781 40.757812 C 25.726562 41.148438 25.578125 41.75 25.785156 42.308594 C 25.996094 42.863281 26.503906 43.214844 27.101562 43.214844 L 30.636719 43.214844 C 30.992188 43.214844 31.296875 43.101562 31.5625 42.871094 L 56.933594 20.675781 C 57.464844 20.210938 58.25 20.210938 58.78125 20.675781 L 84.15625 42.871094 C 84.421875 43.101562 84.726562 43.214844 85.078125 43.214844 L 88.617188 43.214844 C 89.210938 43.214844 89.71875 42.863281 89.929688 42.308594 C 90.140625 41.75 89.988281 41.148438 89.539062 40.757812 L 59.257812 14.269531 L 59.257812 9.964844 Z M 77.042969 104.277344 L 65.289062 104.277344 L 65.289062 86.023438 C 65.289062 85.226562 64.640625 84.578125 63.84375 84.578125 L 51.871094 84.578125 C 51.074219 84.578125 50.425781 85.226562 50.425781 86.023438 L 50.425781 104.277344 L 38.671875 104.277344 L 38.671875 40.371094 L 57.859375 23.585938 L 77.042969 40.367188 Z M 46.671875 69.851562 L 53.644531 69.851562 C 54.4375 69.851562 55.089844 69.203125 55.089844 68.40625 L 55.089844 63.730469 C 55.089844 62.933594 54.4375 62.285156 53.644531 62.285156 L 46.671875 62.285156 C 45.875 62.285156 45.222656 62.933594 45.222656 63.730469 L 45.222656 68.40625 C 45.222656 69.203125 45.875 69.851562 46.671875 69.851562 Z M 62.074219 69.851562 L 69.046875 69.851562 C 69.84375 69.851562 70.492188 69.203125 70.492188 68.40625 L 70.492188 63.730469 C 70.492188 62.933594 69.84375 62.285156 69.046875 62.285156 L 62.074219 62.285156 C 61.277344 62.285156 60.628906 62.933594 60.628906 63.730469 L 60.628906 68.40625 C 60.628906 69.203125 61.277344 69.851562 62.074219 69.851562 Z M 57.859375 32.570312 C 63.605469 32.570312 68.269531 37.234375 68.269531 42.980469 C 68.269531 48.730469 63.605469 53.390625 57.859375 53.390625 C 52.109375 53.390625 47.449219 48.730469 47.449219 42.980469 C 47.449219 37.234375 52.109375 32.570312 57.859375 32.570312 Z M 109.988281 104.277344 L 109.988281 58.039062 L 79.84375 58.039062 L 79.84375 104.277344 Z M 87.242188 68.476562 C 86.445312 68.476562 85.796875 67.828125 85.796875 67.03125 L 85.796875 64.652344 C 85.796875 63.855469 86.445312 63.207031 87.242188 63.207031 L 89.621094 63.207031 C 90.417969 63.207031 91.066406 63.855469 91.066406 64.652344 L 91.066406 67.03125 C 91.066406 67.828125 90.417969 68.476562 89.621094 68.476562 Z M 100.210938 68.476562 C 99.414062 68.476562 98.765625 67.828125 98.765625 67.03125 L 98.765625 64.652344 C 98.765625 63.855469 99.414062 63.207031 100.210938 63.207031 L 102.589844 63.207031 C 103.382812 63.207031 104.035156 63.855469 104.035156 64.652344 L 104.035156 67.03125 C 104.035156 67.828125 103.382812 68.476562 102.589844 68.476562 Z M 87.242188 79.957031 C 86.445312 79.957031 85.796875 79.308594 85.796875 78.511719 L 85.796875 76.132812 C 85.796875 75.335938 86.445312 74.6875 87.242188 74.6875 L 89.621094 74.6875 C 90.417969 74.6875 91.066406 75.335938 91.066406 76.132812 L 91.066406 78.511719 C 91.066406 79.308594 90.417969 79.957031 89.621094 79.957031 Z M 100.210938 79.957031 C 99.414062 79.957031 98.765625 79.308594 98.765625 78.511719 L 98.765625 76.132812 C 98.765625 75.335938 99.414062 74.6875 100.210938 74.6875 L 102.589844 74.6875 C 103.382812 74.6875 104.035156 75.335938 104.035156 76.132812 L 104.035156 78.511719 C 104.035156 79.308594 103.382812 79.957031 102.589844 79.957031 Z M 87.242188 91.4375 C 86.445312 91.4375 85.796875 90.789062 85.796875 89.992188 L 85.796875 87.613281 C 85.796875 86.816406 86.445312 86.167969 87.242188 86.167969 L 89.621094 86.167969 C 90.417969 86.167969 91.066406 86.816406 91.066406 87.613281 L 91.066406 89.992188 C 91.066406 90.789062 90.417969 91.4375 89.621094 91.4375 Z M 100.210938 91.4375 C 99.414062 91.4375 98.765625 90.789062 98.765625 89.992188 L 98.765625 87.613281 C 98.765625 86.816406 99.414062 86.167969 100.210938 86.167969 L 102.589844 86.167969 C 103.382812 86.167969 104.035156 86.816406 104.035156 87.613281 L 104.035156 89.992188 C 104.035156 90.789062 103.382812 91.4375 102.589844 91.4375 Z M 5.730469 58.039062 L 5.730469 104.277344 L 35.871094 104.277344 L 35.871094 58.039062 Z M 13.128906 68.476562 C 12.332031 68.476562 11.683594 67.828125 11.683594 67.03125 L 11.683594 64.652344 C 11.683594 63.855469 12.332031 63.207031 13.128906 63.207031 L 15.507812 63.207031 C 16.304688 63.207031 16.953125 63.855469 16.953125 64.652344 L 16.953125 67.03125 C 16.953125 67.828125 16.304688 68.476562 15.507812 68.476562 Z M 26.09375 68.476562 C 25.300781 68.476562 24.648438 67.828125 24.648438 67.03125 L 24.648438 64.652344 C 24.648438 63.855469 25.300781 63.207031 26.09375 63.207031 L 28.476562 63.207031 C 29.269531 63.207031 29.917969 63.855469 29.917969 64.652344 L 29.917969 67.03125 C 29.917969 67.828125 29.269531 68.476562 28.476562 68.476562 Z M 13.128906 79.957031 C 12.332031 79.957031 11.683594 79.308594 11.683594 78.511719 L 11.683594 76.132812 C 11.683594 75.335938 12.332031 74.6875 13.128906 74.6875 L 15.507812 74.6875 C 16.304688 74.6875 16.953125 75.335938 16.953125 76.132812 L 16.953125 78.511719 C 16.953125 79.308594 16.304688 79.957031 15.507812 79.957031 Z M 26.09375 79.957031 C 25.300781 79.957031 24.648438 79.308594 24.648438 78.511719 L 24.648438 76.132812 C 24.648438 75.335938 25.300781 74.6875 26.09375 74.6875 L 28.476562 74.6875 C 29.269531 74.6875 29.917969 75.335938 29.917969 76.132812 L 29.917969 78.511719 C 29.917969 79.308594 29.269531 79.957031 28.476562 79.957031 Z M 13.128906 91.4375 C 12.332031 91.4375 11.683594 90.789062 11.683594 89.992188 L 11.683594 87.613281 C 11.683594 86.816406 12.332031 86.167969 13.128906 86.167969 L 15.507812 86.167969 C 16.304688 86.167969 16.953125 86.816406 16.953125 87.613281 L 16.953125 89.992188 C 16.953125 90.789062 16.304688 91.4375 15.507812 91.4375 Z M 26.09375 91.4375 C 25.300781 91.4375 24.648438 90.789062 24.648438 89.992188 L 24.648438 87.613281 C 24.648438 86.816406 25.300781 86.167969 26.09375 86.167969 L 28.476562 86.167969 C 29.269531 86.167969 29.917969 86.816406 29.917969 87.613281 L 29.917969 89.992188 C 29.917969 90.789062 29.269531 91.4375 28.476562 91.4375 Z M 56.457031 36.457031 C 56.457031 35.683594 57.085938 35.054688 57.859375 35.054688 C 58.632812 35.054688 59.257812 35.683594 59.257812 36.457031 L 59.257812 41.582031 L 62.828125 41.582031 C 63.601562 41.582031 64.230469 42.207031 64.230469 42.980469 C 64.230469 43.753906 63.601562 44.382812 62.828125 44.382812 L 57.859375 44.382812 C 57.085938 44.382812 56.457031 43.753906 56.457031 42.980469 Z M 56.457031 36.457031 " fill-opacity="1" fill-rule="evenodd"/></g></svg>