<svg xmlns="http://www.w3.org/2000/svg" xmlns:xlink="http://www.w3.org/1999/xlink" width="1000" zoomAndPan="magnify" viewBox="0 0 750 749.999995" height="1000" preserveAspectRatio="xMidYMid meet" version="1.0"><defs><g/></defs><path fill="#0f172a" d="M 9.308594 746.214844 L 740.53125 746.214844 C 745.6875 746.214844 749.894531 742.011719 749.894531 736.855469 L 749.894531 723.699219 C 749.894531 718.542969 745.6875 714.335938 740.53125 714.335938 L 9.308594 714.335938 C 4.152344 714.335938 -0.0546875 718.542969 -0.0546875 723.699219 L -0.0546875 736.855469 C -0.0546875 742.011719 4.152344 746.214844 9.308594 746.214844 Z M 732.246094 368.519531 L 521.589844 368.519531 L 521.589844 328.402344 L 717.761719 328.402344 C 720.964844 328.402344 723.71875 329.863281 725.515625 332.515625 L 739.996094 353.90625 C 741.988281 356.851562 742.183594 360.402344 740.515625 363.542969 C 738.851562 366.683594 735.800781 368.519531 732.246094 368.519531 Z M 17.589844 368.519531 L 228.246094 368.519531 L 228.246094 328.402344 L 32.074219 328.402344 C 28.871094 328.402344 26.117188 329.863281 24.320312 332.515625 L 9.839844 353.90625 C 7.847656 356.851562 7.652344 360.402344 9.320312 363.542969 C 10.984375 366.683594 14.035156 368.519531 17.589844 368.519531 Z M 384.28125 66.464844 L 465.925781 66.464844 C 469.75 66.464844 473.023438 64.75 474.53125 61.949219 C 476.039062 59.152344 475.347656 56.085938 472.710938 53.875 L 459.027344 42.410156 C 455.585938 39.53125 455.589844 35.015625 459.027344 32.136719 L 472.710938 20.675781 C 475.347656 18.46875 476.035156 15.402344 474.527344 12.601562 C 473.023438 9.800781 469.75 8.085938 465.921875 8.085938 L 384.28125 8.085938 L 384.03125 8.089844 C 383.089844 3.925781 379.367188 0.8125 374.917969 0.8125 C 369.761719 0.8125 365.582031 4.996094 365.582031 10.152344 L 365.582031 95.195312 L 163.5625 271.894531 C 160.570312 274.515625 159.566406 278.511719 160.964844 282.238281 C 162.359375 285.957031 165.75 288.304688 169.726562 288.304688 L 193.320312 288.304688 C 195.679688 288.304688 197.707031 287.542969 199.484375 285.988281 L 368.753906 137.933594 C 372.304688 134.824219 377.53125 134.824219 381.082031 137.933594 L 550.351562 285.988281 C 552.128906 287.542969 554.160156 288.304688 556.519531 288.304688 L 580.109375 288.304688 C 584.085938 288.304688 587.476562 285.957031 588.875 282.238281 C 590.273438 278.515625 589.269531 274.515625 586.277344 271.894531 L 384.257812 95.195312 L 384.257812 66.464844 Z M 502.914062 695.660156 L 424.492188 695.660156 L 424.492188 573.886719 C 424.492188 568.578125 420.164062 564.246094 414.855469 564.246094 L 334.984375 564.246094 C 329.671875 564.246094 325.347656 568.578125 325.347656 573.886719 L 325.347656 695.660156 L 246.917969 695.660156 L 246.917969 269.308594 L 374.917969 157.351562 L 502.914062 269.308594 Z M 300.277344 465.996094 L 346.800781 465.996094 C 352.109375 465.996094 356.441406 461.660156 356.441406 456.355469 L 356.441406 425.160156 C 356.441406 419.851562 352.109375 415.519531 346.800781 415.519531 L 300.277344 415.519531 C 294.96875 415.519531 290.636719 419.851562 290.636719 425.160156 L 290.636719 456.355469 C 290.636719 461.660156 294.96875 465.996094 300.277344 465.996094 Z M 403.035156 465.996094 L 449.558594 465.996094 C 454.867188 465.996094 459.199219 461.660156 459.199219 456.355469 L 459.199219 425.160156 C 459.199219 419.851562 454.867188 415.519531 449.558594 415.519531 L 403.035156 415.519531 C 397.726562 415.519531 393.394531 419.851562 393.394531 425.160156 L 393.394531 456.355469 C 393.394531 461.660156 397.726562 465.996094 403.035156 465.996094 Z M 374.917969 217.292969 C 413.269531 217.292969 444.363281 248.386719 444.363281 286.738281 C 444.363281 325.085938 413.269531 356.179688 374.917969 356.179688 C 336.570312 356.179688 305.472656 325.085938 305.472656 286.738281 C 305.472656 248.386719 336.570312 217.292969 374.917969 217.292969 Z M 722.683594 695.660156 L 722.683594 387.191406 L 521.589844 387.191406 L 521.589844 695.660156 Z M 570.945312 456.820312 C 565.636719 456.820312 561.308594 452.488281 561.308594 447.175781 L 561.308594 431.300781 C 561.308594 425.992188 565.636719 421.660156 570.945312 421.660156 L 586.820312 421.660156 C 592.132812 421.660156 596.460938 425.992188 596.460938 431.300781 L 596.460938 447.175781 C 596.460938 452.488281 592.132812 456.820312 586.820312 456.820312 Z M 657.453125 456.820312 C 652.144531 456.820312 647.8125 452.488281 647.8125 447.175781 L 647.8125 431.300781 C 647.8125 425.992188 652.144531 421.660156 657.453125 421.660156 L 673.332031 421.660156 C 678.636719 421.660156 682.96875 425.992188 682.96875 431.300781 L 682.96875 447.175781 C 682.96875 452.488281 678.636719 456.820312 673.332031 456.820312 Z M 570.945312 533.410156 C 565.636719 533.410156 561.308594 529.082031 561.308594 523.769531 L 561.308594 507.898438 C 561.308594 502.585938 565.636719 498.257812 570.945312 498.257812 L 586.820312 498.257812 C 592.132812 498.257812 596.460938 502.585938 596.460938 507.898438 L 596.460938 523.769531 C 596.460938 529.082031 592.132812 533.410156 586.820312 533.410156 Z M 657.453125 533.410156 C 652.144531 533.410156 647.8125 529.082031 647.8125 523.769531 L 647.8125 507.898438 C 647.8125 502.585938 652.144531 498.257812 657.453125 498.257812 L 673.332031 498.257812 C 678.636719 498.257812 682.96875 502.585938 682.96875 507.898438 L 682.96875 523.769531 C 682.96875 529.082031 678.636719 533.410156 673.332031 533.410156 Z M 570.945312 610.003906 C 565.636719 610.003906 561.308594 605.675781 561.308594 600.363281 L 561.308594 584.492188 C 561.308594 579.179688 565.636719 574.851562 570.945312 574.851562 L 586.820312 574.851562 C 592.132812 574.851562 596.460938 579.179688 596.460938 584.492188 L 596.460938 600.363281 C 596.460938 605.675781 592.132812 610.003906 586.820312 610.003906 Z M 657.453125 610.003906 C 652.144531 610.003906 647.8125 605.675781 647.8125 600.363281 L 647.8125 584.492188 C 647.8125 579.179688 652.144531 574.851562 657.453125 574.851562 L 673.332031 574.851562 C 678.636719 574.851562 682.96875 579.179688 682.96875 584.492188 L 682.96875 600.363281 C 682.96875 605.675781 678.636719 610.003906 673.332031 610.003906 Z M 27.152344 387.191406 L 27.152344 695.660156 L 228.246094 695.660156 L 228.246094 387.191406 Z M 76.507812 456.820312 C 71.199219 456.820312 66.871094 452.488281 66.871094 447.175781 L 66.871094 431.300781 C 66.871094 425.992188 71.199219 421.660156 76.507812 421.660156 L 92.382812 421.660156 C 97.695312 421.660156 102.023438 425.992188 102.023438 431.300781 L 102.023438 447.175781 C 102.023438 452.488281 97.695312 456.820312 92.382812 456.820312 Z M 163.015625 456.820312 C 157.707031 456.820312 153.378906 452.488281 153.378906 447.175781 L 153.378906 431.300781 C 153.378906 425.992188 157.707031 421.660156 163.015625 421.660156 L 178.894531 421.660156 C 184.199219 421.660156 188.53125 425.992188 188.53125 431.300781 L 188.53125 447.175781 C 188.53125 452.488281 184.199219 456.820312 178.894531 456.820312 Z M 76.507812 533.410156 C 71.199219 533.410156 66.871094 529.082031 66.871094 523.769531 L 66.871094 507.898438 C 66.871094 502.585938 71.199219 498.257812 76.507812 498.257812 L 92.382812 498.257812 C 97.695312 498.257812 102.023438 502.585938 102.023438 507.898438 L 102.023438 523.769531 C 102.023438 529.082031 97.695312 533.410156 92.382812 533.410156 Z M 163.015625 533.410156 C 157.707031 533.410156 153.378906 529.082031 153.378906 523.769531 L 153.378906 507.898438 C 153.378906 502.585938 157.707031 498.257812 163.015625 498.257812 L 178.894531 498.257812 C 184.199219 498.257812 188.53125 502.585938 188.53125 507.898438 L 188.53125 523.769531 C 188.53125 529.082031 184.199219 533.410156 178.894531 533.410156 Z M 76.507812 610.003906 C 71.199219 610.003906 66.871094 605.675781 66.871094 600.363281 L 66.871094 584.492188 C 66.871094 579.179688 71.199219 574.851562 76.507812 574.851562 L 92.382812 574.851562 C 97.695312 574.851562 102.023438 579.179688 102.023438 584.492188 L 102.023438 600.363281 C 102.023438 605.675781 97.695312 610.003906 92.382812 610.003906 Z M 163.015625 610.003906 C 157.707031 610.003906 153.378906 605.675781 153.378906 600.363281 L 153.378906 584.492188 C 153.378906 579.179688 157.707031 574.851562 163.015625 574.851562 L 178.894531 574.851562 C 184.199219 574.851562 188.53125 579.179688 188.53125 584.492188 L 188.53125 600.363281 C 188.53125 605.675781 184.199219 610.003906 178.894531 610.003906 Z M 365.582031 243.203125 C 365.582031 238.046875 369.761719 233.867188 374.917969 233.867188 C 380.074219 233.867188 384.257812 238.046875 384.257812 243.203125 L 384.257812 277.398438 L 408.082031 277.398438 C 413.238281 277.398438 417.417969 281.582031 417.417969 286.738281 C 417.417969 291.894531 413.238281 296.078125 408.082031 296.078125 L 374.917969 296.078125 C 369.761719 296.078125 365.582031 291.894531 365.582031 286.738281 Z M 365.582031 243.203125 " fill-opacity="1" fill-rule="evenodd"/><g fill="#0f172a" fill-opacity="1"><g transform="translate(449.122133, 395.892159)"><g><path d="M 29.75 0 L 18.875 0 L 18.875 -29.75 L 18.984375 -34.625 L 19.15625 -39.96875 C 17.351562 -38.164062 16.101562 -36.984375 15.40625 -36.421875 L 9.5 -31.671875 L 4.25 -38.21875 L 20.8125 -51.40625 L 29.75 -51.40625 Z M 29.75 0 "/></g></g></g></svg>